<?xml version="1.0" encoding="utf-8"?>
<!-- Generator: Adobe Illustrator 23.1.0, SVG Export Plug-In . SVG Version: 6.00 Build 0)  -->
<svg version="1.1" xmlns="http://www.w3.org/2000/svg" xmlns:xlink="http://www.w3.org/1999/xlink" x="0px" y="0px"
	 viewBox="0 0 512 512" style="enable-background:new 0 0 512 512;" xml:space="preserve">
<style type="text/css">
	.st0{display:none;}
	.st1{display:inline;fill:#6FD6A2;}
	.st2{display:inline;fill:#BBECCC;}
	.st3{display:inline;fill:#9AE59C;}
	.st4{display:inline;fill:#FDA2C5;}
	.st5{display:inline;fill:#FD92BA;}
	.st6{display:inline;fill:#F9F6F6;}
	.st7{display:inline;fill:#9BE59D;}
	.st8{display:inline;}
	.st9{fill:#EF7280;}
	.st10{fill:#EA5569;}
	.st11{fill:#62DAFA;}
	.st12{fill:#90DDB5;}
	.st13{fill:#FEC244;}
	.st14{fill:#01CFFA;}
	.st15{fill:#FEE077;}
	.st16{fill:#FED05B;}
	.st17{fill:#EF7281;}
	.st18{fill:#D7EBFD;}
	.st19{fill:#C3E1FE;}
	.st20{fill:#678C97;}
	.st21{fill:#7CA0B0;}
	.st22{fill:#FCCC56;}
	.st23{fill:#66D3F0;}
	.st24{fill:#C5E993;}
	.st25{fill:#F66C82;}
	.st26{fill:#7E8489;}
</style>
<g id="圖層_1" class="st0">
	<path class="st1" d="M486.51,297.61c-2.65,26.91-12.59,50.92-29.41,71.96c-21.8,27.27-50.11,44.08-84.4,50.48
		c-8.82,1.65-17.86,2.29-26.84,2.88c-39.95,2.65-79.95,3.41-119.97,2.7c-8.33-0.15-13.65,3.4-16.85,10.86
		c-7.03,16.38-20.59,25.34-36.38,31.67c-5.72,2.29-11.67,3.93-17.67,5.27c-6.05,1.35-8.91-1.54-7.81-7.66
		c1.08-6.05,0.82-12.28,2.42-18.26c1.1-1.58,2.84-2.15,4.49-2.89c14.34-6.43,25.79-15.78,32.14-30.7
		c2.93-6.87,8.77-10.09,16.23-10.12c12.49-0.06,24.99-0.2,37.48,0.02c23.78,0.43,47.52-0.68,71.22-2.03
		c14.37-0.82,28.83-1.3,43.03-4.36c27.25-5.88,50.89-18.55,70.24-38.49c21.15-21.8,34.19-47.96,37.98-78.24
		c4.49-35.81-3.36-68.73-24.34-98.37c-1.78-2.51-5-4.56-4.04-8.47c8.81,5.45,15.62,13.07,22.02,20.98
		c17.1,21.15,27.49,45.21,30.44,72.36c0.05,0.5,0.55,0.96,0.84,1.43c0,8.13,0,16.26,0,24.39
		C486.23,294.4,487.4,296.19,486.51,297.61z"/>
	<path class="st2" d="M486.51,297.61c0.01-1.58-0.59-3.26,0.81-4.59c0,1.51,0,3.01,0,4.52
		C487.05,297.56,486.78,297.58,486.51,297.61z"/>
	<path class="st3" d="M434.02,173.85c3.94,7.22,9.28,13.53,13.31,20.72c7.72,13.77,12.66,28.43,15.6,43.87
		c2.18,11.44,2.31,23.03,1.66,34.54c-0.79,13.97-4.19,27.53-9.31,40.56c-7.06,17.97-17.49,33.91-31.16,47.47
		c-20.7,20.54-45.6,33.37-74.34,38.52c-9.88,1.77-19.92,2.04-29.91,2.83c-39.74,3.16-79.55,2.57-119.35,2.75
		c-6.52,0.03-11.12,4.05-13.69,10.12c-7.13,16.85-20.58,26.4-37.23,32.26c0.29-3.73,0.74-7.46,0.83-11.2
		c0.22-8.76-4.53-14.85-13.24-16.76c-8.38-1.84-16.68-3.94-24.57-7.3c-45.7-19.47-74.89-53.25-84.84-101.97
		c-9.06-44.34,1.8-84.36,31.35-118.84c23.66-27.61,54.13-42.68,89.98-47.26c3.7-0.47,7.45-0.62,11.18-0.91
		c-0.95,2.5-0.65,4.89,0.29,7.37c15.23,40.1,43.83,63.51,86.67,68.06c47.88,5.08,90.16-25.72,104.26-67.83
		c0.8-2.38,1.07-5.04,3.05-6.91c28.7,1.1,54.31,10.86,77.38,27.66C432.76,172.18,433.34,173.09,434.02,173.85z"/>
	<path class="st4" d="M179.09,142.11c-7.88-28.43-2.71-54.17,16.72-76.47c17.53-20.12,40.17-28.93,66.63-27.17
		c16.55,1.1,31.45,7.17,44.33,17.83c5.5,8.54,9.51,17.72,11.4,27.73c5.29,28.03-1.36,52.69-21.11,73.51
		c-12.29,12.95-27.3,21.08-44.96,23.82c-19.66,3.06-38.3-0.04-55.53-10.35c-1.29-0.77-2.53-1.61-3.98-2.08
		C185.62,161.23,180.12,152.79,179.09,142.11z"/>
	<path class="st1" d="M179.09,142.11c2.96,9.6,7.4,18.42,13.77,26.23c4.65,2.67,7.5,7.26,11.54,10.65
		c25.55,21.44,60.12,25.28,89.42,9.51c17.56-9.45,29.55-23.79,36.89-42.2c0.63-1.57,0.61-3.7,2.87-4.19
		c6.99,0.61,13.99,1.22,20.98,1.83c-3.04,14.07-9.63,26.5-18.39,37.67c-13.02,16.61-29.72,28.48-50.02,34.32
		c-35.28,10.15-67.41,3.71-95.93-19.83c-15.54-12.82-25.56-29.13-31.79-48.07c-0.83-2.52-0.57-3.88,1.86-4.78
		C166.56,142.86,172.82,142.49,179.09,142.11z"/>
	<path class="st5" d="M333.58,142.1c-4.24,11.14-9.47,21.66-17.68,30.54c-12.88,13.94-28.51,22.74-47.34,25.54
		c-25.47,3.78-47.77-3.17-67.05-20.12c-3.29-2.89-6.12-6.17-8.66-9.72c2.19-0.94,3.18,1.13,4.6,1.94
		c29.95,16.99,65.87,14.62,92.17-7.3c17.64-14.7,27.71-33.78,28.86-57.25c0.79-16.13-2.4-31.1-10.52-45.07
		c-0.71-1.23-2.38-2.49-1.21-4.36c16.04,12.66,25.29,29.29,28.79,49.27C337.72,117.9,336.34,130.04,333.58,142.1z"/>
	<path class="st6" d="M256.2,322.49c0.21,3.87-1.66,6.06-5.17,6.98c-3.68,0.97-6.25-0.81-7.73-3.84c-1.7-3.49-3.01-7.2-4.21-10.9
		c-0.68-2.1-1.8-2.8-3.92-2.78c-9.47,0.08-18.94,0.1-28.41-0.02c-2.19-0.03-3.29,0.81-3.98,2.76c-1.15,3.25-2.39,6.47-3.66,9.68
		c-1.76,4.43-5.28,6.28-9.13,4.87c-3.99-1.46-5.55-5.38-3.8-10.07c3.72-9.98,7.54-19.92,11.34-29.87
		c4.97-13.03,9.89-26.09,14.98-39.08c2.66-6.79,8.13-8.75,13.53-5.26c1.93,1.25,2.78,3.14,3.52,5.08
		c8.56,22.58,17.08,45.18,25.6,67.78C255.73,319.37,256.36,320.91,256.2,322.49z"/>
	<path class="st6" d="M307.35,243.26c8.79,0.38,16.76,3.19,23.75,8.53c3.84,2.93,4.46,6.47,2.09,9.76
		c-2.46,3.41-6.21,3.93-10.26,1.33c-6.2-3.99-12.61-6.86-20.3-5.17c-2.64,0.58-4.78,1.73-6.51,3.7c-3.75,4.26-2.69,9.48,2.53,11.74
		c7.99,3.45,16.31,6.23,24.02,10.2c11.16,5.75,15.58,14.79,13.77,25.85c-1.39,8.53-10.95,17.83-20.89,19.71
		c-14.11,2.66-26.45-1.29-36.8-11.14c-4.73-4.5-3.4-10.61,2.4-12.43c2.98-0.94,5.24,0.4,7.25,2.38c5.91,5.84,13.04,8.37,21.28,7.87
		c1.33-0.08,2.69-0.32,3.95-0.74c4.7-1.54,8.55-4.29,9.16-9.47c0.63-5.34-3.28-8.27-7.45-10.19c-7.22-3.32-14.61-6.31-22.04-9.14
		c-8.85-3.37-13-10.18-13.3-19.03c-0.28-8.35,3.75-15.04,11-19.44C295.98,244.56,301.47,243.14,307.35,243.26z"/>
	<path class="st6" d="M123.42,286.37c0-10.99-0.03-21.98,0.01-32.97c0.03-7.34,2.75-9.97,10.15-9.98
		c8.58-0.01,17.16-0.08,25.74,0.03c5.18,0.06,8.06,2.41,8.3,6.38c0.29,4.74-2.46,7.68-7.8,7.83c-6.17,0.18-12.35,0.15-18.51,0
		c-2.71-0.07-3.76,0.76-3.66,3.58c0.19,4.96,0.16,9.94,0.01,14.9c-0.07,2.53,0.79,3.46,3.36,3.39c5.42-0.15,10.84-0.08,16.26-0.03
		c4.99,0.04,8.06,2.4,8.4,6.35c0.33,3.83-2.43,7.14-7.25,7.55c-5.68,0.49-11.42,0.4-17.13,0.32c-2.74-0.04-3.74,0.84-3.64,3.62
		c0.18,4.96,0.16,9.94,0.01,14.9c-0.08,2.57,0.86,3.42,3.39,3.37c6.32-0.13,12.64-0.09,18.97-0.03c4.87,0.05,7.66,2.64,7.63,6.92
		c-0.03,4.51-2.44,6.7-7.69,6.73c-9.33,0.06-18.67,0.05-28,0c-5.98-0.03-8.46-2.44-8.52-8.54
		C123.35,309.25,123.42,297.81,123.42,286.37z"/>
	<path class="st6" d="M374.46,303.23c2.79-10.53-2.24-21.16-9.99-31.17c-4.03-5.21-7.32-11.01-10.89-16.57
		c-2.95-4.6-2.48-8.49,1.24-11.08c3.41-2.37,7.19-1.19,10.18,3.3c4.91,7.39,9.84,14.77,14.56,22.27c1.63,2.59,2.52,2.26,3.99-0.02
		c4.7-7.34,9.47-14.64,14.29-21.91c3.12-4.71,6.9-5.89,10.55-3.44c3.63,2.43,4.07,6.55,1.11,11.11
		c-6.14,9.46-12.25,18.93-18.52,28.3c-1.59,2.38-2.27,4.74-2.24,7.57c0.1,9.18,0.04,18.36,0,27.54c-0.01,1.49-0.07,3.01-0.33,4.48
		c-0.71,3.99-3.39,6-7.22,6.2c-3.23,0.17-6.55-3.51-6.66-7.34C374.33,316.89,374.46,311.32,374.46,303.23z"/>
	<path class="st6" d="M213.59,124.39c-0.26-3.47,1.26-5.47,4.08-6.58c3.02-1.19,5.72-0.39,7.69,1.96c3.17,3.79,6.19,7.72,9.07,11.74
		c1.63,2.27,2.77,3.03,5.18,0.69c9.7-9.39,19.61-18.58,29.42-27.86c6-5.67,11.99-11.35,17.94-17.07c3.01-2.89,6.25-2.73,9.4-0.61
		c2.7,1.83,3.01,6.74,0.97,9.86c-1.35,2.08-3.58,3.17-5.31,4.83c-8.33,8.02-16.67,16.02-25.01,24.04
		c-8.34,8.01-16.65,16.05-25.02,24.02c-4.36,4.14-8.6,3.71-12.2-1.02c-4.45-5.84-8.97-11.63-13.38-17.51
		C214.94,128.88,212.95,126.99,213.59,124.39z"/>
	<path class="st7" d="M221,267.09c3.8,9.97,7.13,18.79,10.54,27.58c0.98,2.53,0.93,3.82-2.42,3.68c-5.55-0.23-11.11-0.06-16.66-0.06
		c-1.88,0-3.39-0.17-2.37-2.78C213.62,286.46,217.06,277.38,221,267.09z"/>
</g>
<g id="圖層_2" class="st0">
	<g class="st8">
		<path class="st9" d="M232.57,107.98c3.36,1.23,5.84,3.64,8.31,6.1c21.08,20.93,42.17,41.85,63.23,62.8c2.01,2,4,3.87,7.05,3.95
			c1.4,0.65,2.58,1.58,3.72,2.63c4.46,4.11,7.5,3.95,11.9-0.12c21.67-20.07,41.72-41.78,63.09-62.13
			c14.52-13.84,28.53-28.17,42.85-42.2c0.3-0.29,0.64-0.56,0.88-0.89c1.38-1.92,4.84-3.1,3.51-5.99c-1.26-2.75-4.49-1.24-6.86-1.56
			c-2.06-0.28-4.15,0.51-6.2-0.17c0.4-3.8-1.81-4.9-5.07-4.83c-7.77,0.16-15.54,0.37-23.32,0.5c-1.49,0.02-3.08,0.41-4.44-0.61
			c5.61-2.52,11.34-0.83,16.21-0.93c1.33,0.66,1.03-0.54,0.98,0.02c-0.01,0.15-0.12,0.17-0.32,0.08c-4.39-2.09-7.24-7.03-6.83-11.82
			c0.5-5.79,3.78-9.28,10.16-10.83c16.44,0,32.87,0,49.31,0c7.09,2.72,9.38,8.01,9.29,15.38c-0.27,20.2-0.09,40.4-0.1,60.6
			c0,5.19-2.13,9.23-6.88,11.47c-4.58,2.16-8.98,1.45-12.88-1.77c-3.41-2.82-4.22-6.76-4.25-10.91c-0.05-7.52,0.04-15.05-0.05-22.57
			c-0.03-2.38,0.94-5.35-2.21-6.55c-2.84-1.08-4.26,1.45-5.86,3.04c-30.02,29.86-60.01,59.76-90,89.65
			c-6.12,6.1-12.23,12.2-18.35,18.29c-11.81,11.73-25.58,11.73-37.46-0.08c-17.39-17.28-34.74-34.6-52.11-51.9
			c-3.65-3.64-7.29-7.29-10.96-10.91c-4.83-4.77-7.89-4.75-12.76,0.1c-31.19,31.06-62.34,62.15-93.55,93.19
			c-19.25,19.15-38.58,38.22-57.88,57.33c-2.8-3.7-2.62-9.62,0.45-13.43c0.96-1.2,2.11-2.22,3.19-3.31
			c43.13-43.15,86.15-86.42,129.49-129.36c9.88-9.79,19.93-19.44,29.87-29.19C229.09,109.69,230.52,108.32,232.57,107.98z"/>
		<path class="st10" d="M42,450.77c1.82-4.67,1.62-9.7,2.41-14.54c6.16-37.86,21.33-71.64,45.46-101.39
			c5.07-6.25,10.24-12.45,16.39-17.72c2.41,0.41,3.56,2.48,5.11,3.97c3.38,3.24,6.67,6.59,9.95,9.93c1.15,1.17,2.42,2.31,2.43,4.17
			c-0.24,2.05-1.56,3.54-2.73,5.09c-23.35,30.92-37.5,65.62-42.48,104.02c-1.05,8.1-2.11,16.26-0.98,24.48
			c0.06,0.42-0.21,0.79-0.48,1.11c-9.31,0.04-18.63-0.01-27.94,0.17c-3.4,0.06-5.23-2.02-7.13-4.22C42,460.8,42,455.78,42,450.77z"
			/>
		<path class="st10" d="M232.57,107.98C177.1,161.34,123.33,216.41,68.64,270.55c-4.83,4.78-5.96,9.68-3.93,15.78
			c-7.99,8.9-16.1,7.92-22.71-2.76c0-2.23,0-4.46,0-6.69c2.14-3.79,5.32-6.67,8.35-9.69c51.4-51.13,102.79-102.27,154.19-153.4
			C212.94,105.45,223.44,103.29,232.57,107.98z"/>
		<path class="st10" d="M411.4,41.96c-3.06,1.6-6.2,3.03-7.81,6.45c-2.97,6.32-0.84,12.25,6.98,17.04c-7.1,0-13.23,0-19.37,0
			c-6.06-1.21-9.58-4.74-10.32-10.36c-0.65-4.89,2.1-9.59,7.05-12.13c0.59-0.3,1.16-0.67,1.74-1
			C396.91,41.96,404.16,41.96,411.4,41.96z"/>
		<path class="st11" d="M223.28,469.92c-33.14-0.01-66.29-0.02-99.43-0.02c-0.93-1.02-0.93-2.26-0.86-3.53
			c1.49-27.9,8.21-54.41,21.12-79.25c7.54-14.52,16.89-27.76,27.83-39.97c17.94-20,39.18-35.32,63.6-46.35
			c1.16-0.52,2.09-1.37,3.23-1.93c5.49-1.36,11.07-0.54,16.6-0.61c2.92-0.04,5.84,0,8.75,0.02c27.23,1,52.58,8.63,76.26,21.92
			c12.8,7.18,24.63,15.7,34.86,26.31c15.35,14.51,27.38,31.4,36.4,50.47c7.86,16.62,12.76,34.08,15.06,52.31
			c0.66,5.26,0.97,10.52,0.83,15.81c-0.04,1.65,0.21,3.37-1.02,4.77c-29.31,0.04-58.62,0.09-87.93,0.11
			c-16.67,0.01-33.34-0.01-50.01-0.02c-1.95-1.94-2.06-4.36-1.8-6.87c1.16-3.94,4.52-6.29,7.05-9.12
			c13.76-15.43,27.27-31.09,41.06-46.5c5.08-5.68,10.27-11.3,14.96-17.33c2.8-3.59,3.58-7.45,1.38-11.64
			c-5.7-6.62-11.05-6.92-17.5-1.15c-20.73,18.53-41.53,36.98-62.57,55.16c-2.61,2.25-4.58,5.31-8.1,6.42
			c-4.55-0.04-9.06-0.79-13.63,0.41c-12.71,3.33-20.77,11.17-24.01,23.94C224.82,465.54,225,468.03,223.28,469.92z"/>
		<path class="st12" d="M426.52,469.88c0.55-29.01-6.78-56.08-20.46-81.48c-6.94-12.88-15.4-24.75-25.7-35.23
			c-1.94-1.98-3.84-4.01-5.76-6.01c9.33-9.74,19.02-19.13,28.54-28.68c0.68-0.68,1.41-1.37,2.49-1.37
			c13.19,12.54,24.19,26.83,33.62,42.34c15.16,24.92,24.53,51.96,28.75,80.76c1.04,7.13,1.46,14.37,1.82,21.58
			c0.26,5.27-2.6,8.13-7.79,8.16C450.19,470.02,438.36,469.92,426.52,469.88z"/>
		<path class="st13" d="M405.63,317.12c-9.41,9.47-18.83,18.95-28.24,28.42c-0.78,0.79-1.52,1.66-2.79,1.62
			c-30.69-29.33-67.27-45.17-109.57-47.94c-1.64-0.4-3.31-0.18-4.97-0.2c-4.94-0.04-5.37-0.36-5.42-5.45
			c-0.1-9.7-0.08-19.41,0-29.11c0.02-2.84-0.75-5.87,1.34-8.41c38.57-0.26,74.42,9.63,107.73,28.94
			C379.06,293.89,393.09,304.55,405.63,317.12z"/>
		<path class="st14" d="M238.43,300.17c-6.12,3.22-12.33,6.27-18.34,9.68c-30.43,17.25-54.21,41.15-71.59,71.52
			c-10.88,19.01-17.89,39.37-21.82,60.83c-1.68,9.14-2.01,18.45-2.83,27.7c-12.92-0.01-25.84-0.02-38.75-0.03
			c-1.47-4.91-1.01-9.96-0.53-14.87c2.17-22.36,8.09-43.67,18.49-63.69c8.54-16.45,19.44-31.08,32.64-44.04
			c13.44-13.13,28.57-23.84,45.46-32.1c16.65-8.15,34.18-13.27,52.51-15.75C235.3,299.2,237,298.9,238.43,300.17z"/>
		<path class="st15" d="M238.43,300.17c-22.78,1.9-43.98,8.92-64.04,19.68c-13.93,7.48-26.3,17.1-37.87,27.8
			c-5.38-3.45-10.14-7.51-12.98-13.44c0.4-2.25,2.33-3.38,3.63-4.96c15.04-18.34,33.11-33.13,53.17-45.62
			c19.16-11.93,39.79-20.28,61.59-25.9c3.5-0.9,7.1-0.99,10.62-1.68c1.14,0,2.29,0,3.43,0c-0.01,12.58,0.11,25.16-0.12,37.73
			c-0.07,3.72,0.85,5.38,4.77,4.88c1.42-0.18,3.05-0.5,4.4,0.55c-7.69,0.11-15.38,0.2-23.06,0.35
			C240.78,299.6,239.48,299.22,238.43,300.17z"/>
		<path class="st16" d="M252.55,256.06c-7.31,1.98-14.69,3.76-21.93,5.99c-17.03,5.25-33.24,12.36-48.51,21.64
			c-15.96,9.7-30.45,21.25-43.67,34.37c-5.2,5.15-9.71,10.99-14.54,16.52c-0.3,0.37-0.57,0.37-0.79-0.07
			c-5.62-5.8-11.24-11.6-16.86-17.4c10.29-10.83,22.14-19.74,34.65-27.79c24.22-15.58,50.63-25.66,78.95-30.56
			C230.65,256.9,241.54,255.51,252.55,256.06z"/>
		<path class="st17" d="M123.12,334.51c0.26,0.03,0.53,0.06,0.79,0.07c4.2,4.36,8.4,8.72,12.61,13.07
			c-12.08,12.38-22.71,25.85-30.91,41.15c-13.59,25.31-20.43,52.33-20.51,81.07c-2.68,0-5.35,0-8.02,0
			c-2.79-5.74-1.04-11.82-0.56-17.53c1.53-17.96,5.31-35.54,11.32-52.61c7.68-21.78,18.43-41.87,32.38-60.27
			C121.38,337.94,122.79,336.53,123.12,334.51z"/>
		<path class="st18" d="M287.65,462.49c0.31,2.5,0.62,4.99,0.93,7.49c-14.5-0.01-29.01-0.01-43.51-0.02
			c-0.7-0.77-0.89-1.68-0.87-2.7c0.21-10.72,10.18-24.48,20.31-28c0.66-0.23,1.35-0.31,2.05-0.3c4.11,0.68,7.39,3,10.67,5.35
			c3.78,3.35,6.75,7.28,8.94,11.86C287.15,458.22,287.74,460.25,287.65,462.49z"/>
		<path class="st19" d="M266.89,439.86c-8.66,2.25-14.2,8.29-18.28,15.73c-2.4,4.37-3.38,9.33-3.55,14.37
			c-7.26-0.01-14.52-0.02-21.78-0.03c1.21-19.03,15.73-33.04,33.74-32.48c2.2,0.07,4.38,0.47,6.58,0.72
			C264.94,438.26,266.61,437.7,266.89,439.86z"/>
		<path class="st10" d="M424.03,70.39c3.88-1.7,7.97-0.9,11.92-0.67c3.33,0.2,3.95,3.43,1.3,6.12
			c-6.34,6.44-12.75,12.83-19.17,19.19c-27.26,27-54.48,54.04-81.86,80.92c-3.45,3.39-7.12,6.59-10.64,9.93
			c-2.52,2.39-6.99,2.3-9.87-0.23c-1.66-1.45-3.05-3.21-4.56-4.83c2.18-0.61,4.02-1.72,5.65-3.35
			c35.01-34.87,70.05-69.7,105.07-104.56C422.65,72.13,423.31,71.23,424.03,70.39z"/>
		<path class="st20" d="M266.89,439.86c-1.1-0.57-2.2-1.13-3.3-1.7c20.86-18.49,41.72-36.98,62.58-55.47
			c2.59-2.3,5.15-4.64,7.79-6.9c6.47-5.55,12.94-4.72,18.1,2.27c0.91,1.63-0.19,2.66-1.22,3.54c-9.36,8.09-18.59,16.33-27.86,24.52
			c-10.83,9.57-21.79,19-32.51,28.7c-3.09,2.8-6.37,5.38-9.39,8.27c-1.14,1.09-2.43,2.39-4.37,1.92
			C273.54,443.12,270.66,440.65,266.89,439.86z"/>
		<path class="st21" d="M276.72,445.02c7.31-5.1,13.48-11.53,20.2-17.31c10.93-9.4,21.73-18.96,32.57-28.47
			c7.19-6.31,14.36-12.65,21.54-18.98c0.66-0.59,0.97-1.34,1.03-2.21c3.66,6.32,0.36,11.11-3.61,15.6
			c-13.56,15.38-27.22,30.67-40.81,46.02c-6.7,7.57-13.33,15.2-20,22.8C285.39,455.8,282,449.82,276.72,445.02z"/>
	</g>
</g>
<g id="圖層_3">
	<path class="st22" d="M345.61,381.52c17.25-13.77,31.52-29.41,42.56-48.04c32.62-55.02,26.74-126.62-14.48-175.51
		c-25.09-29.76-56.96-47.47-95.3-53.69c-8.46-1.37-17.01-1.42-25.56-1.42c-61.49,0-122.98,0.04-184.47-0.09
		c-4.39-0.01-6.25,0.93-5.79,5.65c0.43,4.4,0.09,8.87,0.09,13.31c0,1.51-0.02,3.1-1.64,3.81c-1.76,0.76-3.14-0.09-4.33-1.43
		C45.18,111.26,33.67,98.4,22.13,85.58c-2.08-2.31-2.41-4.21-0.07-6.77C33.46,66.3,44.67,53.62,56,41.05
		c1.24-1.37,2.3-3.53,4.79-2.52c2.43,0.98,1.83,3.23,1.85,5.12c0.05,4.93,0.1,9.87-0.01,14.8c-0.05,2.34,0.83,3.33,3.16,3.14
		c1.31-0.1,2.63-0.01,3.94-0.01c63.79,0.02,127.6-0.81,191.37,0.31c57.24,1,104.77,24.54,142.41,67.66
		c24.16,27.68,39.12,59.93,44.49,96.16c8.17,55.17-4.77,105.21-38.53,149.83c-3.46,4.57-7.02,6.28-12.71,6.13
		c-15.44-0.41-30.91-0.14-46.36-0.14C348.82,381.52,347.21,381.52,345.61,381.52z"/>
	<path class="st23" d="M166.88,131.07c-5.81,4.86-11.6,9.06-16.72,14.06c-26.37,25.71-42.57,56.58-46.24,93.34
		c-5.64,56.5,13.86,102.92,58.15,138.41c26.62,21.33,57.44,32.06,91.64,32.15c63.63,0.17,127.26,0.04,190.89,0.17
		c3.74,0.01,4.91-1.09,4.69-4.75c-0.29-4.75-0.07-9.53-0.06-14.3c0-1.52,0.08-3.07,1.77-3.71c1.82-0.69,3.12,0.25,4.3,1.57
		c11.4,12.73,22.81,25.45,34.23,38.16c1.91,2.13,3.01,4.07,0.53,6.79c-11.5,12.64-22.83,25.43-34.28,38.11
		c-1.23,1.37-2.33,3.51-4.83,2.35c-2.36-1.1-1.67-3.34-1.7-5.22c-0.07-4.27-0.33-8.58,0.06-12.82c0.4-4.39-1.5-5.04-5.37-5.03
		c-41.43,0.13-82.87,0.08-124.3,0.08c-22.69,0-45.39,0.38-68.07-0.13c-45.62-1.03-86.09-16.3-120.98-45.76
		c-34.91-29.47-57.23-66.76-65.52-111.62c-10.89-58.99,2.65-112.37,39.9-159.58c1.37-1.74,2.85-2.88,5.34-2.87
		c18.25,0.1,36.5,0.06,54.75,0.08C165.48,130.55,165.9,130.78,166.88,131.07z"/>
	<path class="st24" d="M146.83,450.42c-26.4,0-52.35,0.12-78.31-0.11c-4.72-0.04-6.44,1.13-5.99,5.96c0.42,4.4,0.07,8.87,0.1,13.3
		c0.01,1.73-0.13,3.31-2.07,4.01c-1.82,0.66-2.76-0.68-3.72-1.73c-10.23-11.32-20.62-22.52-30.58-34.07
		c-7.14-8.28-6.75-8.39,0.68-16.53c9.84-10.79,19.46-21.78,29.15-32.7c1.24-1.4,2.45-2.81,4.56-2.12c2.29,0.75,1.95,2.77,1.96,4.54
		c0.03,4.44,0.28,8.89-0.07,13.3c-0.32,4.08,1.34,5,5.08,4.88c7.88-0.24,15.77-0.06,23.66-0.08c1.82,0,3.56-0.01,5,1.47
		c14.84,15.3,31.78,27.89,49.97,38.87C146.37,449.47,146.41,449.65,146.83,450.42z"/>
	<path class="st25" d="M364.11,61.57c27.51,0,53.65-0.12,79.79,0.11c4.44,0.04,5.75-1.19,5.39-5.5c-0.38-4.57-0.07-9.2-0.09-13.8
		c-0.01-1.73,0.16-3.33,2.13-3.97c1.78-0.58,2.77,0.67,3.74,1.75c11.76,13.08,23.49,26.19,35.27,39.24
		c1.84,2.04,1.48,3.81-0.16,5.64c-11.73,13.1-23.47,26.2-35.2,39.3c-1.07,1.2-2.34,1.87-3.94,1.29c-1.72-0.62-1.82-2.15-1.83-3.67
		c-0.01-4.93-0.21-9.88,0.06-14.79c0.2-3.56-1.18-4.47-4.53-4.38c-8.05,0.2-16.11,0.02-24.17,0.09c-2.23,0.02-4.08-0.34-5.76-2.07
		c-14.31-14.68-30.38-27.11-48.13-37.38C366.16,63.12,365.69,62.71,364.11,61.57z"/>
	<path class="st26" d="M365.74,247.85c-0.03-7.69-1.34-9.38-8.82-10.16c-9.94-1.03-17.04-6.02-20.73-15.14
		c-3.76-9.31-2.04-17.98,4.64-25.66c3.93-4.53,3.71-7.63-0.56-12c-4.14-4.23-8.35-8.38-12.56-12.54c-5.26-5.2-7.75-5.32-13.45-0.58
		c-5.03,4.18-10.76,6.32-17.29,5.71c-12.69-1.17-20.96-9.31-22.63-22.02c-1.05-7.98-2.43-9.23-10.29-9.26
		c-5.42-0.02-10.85-0.02-16.27,0c-7.69,0.03-9.37,1.32-10.14,8.83c-1.02,9.94-6.03,17.04-15.15,20.72
		c-9.31,3.75-17.98,2.02-25.66-4.65c-4.54-3.94-7.6-3.69-11.99,0.6c-4.23,4.14-8.39,8.35-12.56,12.55
		c-5.19,5.23-5.31,7.72-0.56,13.44c4.18,5.03,6.31,10.76,5.7,17.29c-1.18,12.7-9.29,20.93-22.04,22.61
		c-7.96,1.05-9.21,2.43-9.24,10.32c-0.02,5.42-0.02,10.85,0,16.27c0.03,7.68,1.33,9.36,8.85,10.12c9.96,1.01,17.04,6.04,20.7,15.16
		c3.74,9.31,2.01,17.98-4.66,25.66c-3.93,4.53-3.68,7.61,0.61,11.99c4.03,4.11,8.12,8.15,12.19,12.21
		c5.69,5.67,7.76,5.75,14.19,0.58c10.05-8.09,24.07-7.19,33.05,2.07c4.48,4.62,6.13,10.29,6.78,16.5c0.57,5.37,2.67,7.15,8,7.31
		c3.28,0.09,6.57,0.02,9.86,0.02c2.79,0,5.59,0.01,8.38,0c7.68-0.04,9.38-1.35,10.15-8.83c1.02-9.95,6.01-17.04,15.14-20.72
		c9.31-3.75,17.97-2.05,25.66,4.63c4.53,3.94,7.62,3.71,12-0.57c4.23-4.13,8.4-8.34,12.57-12.54c5.19-5.24,5.31-7.75,0.57-13.46
		c-4.17-5.03-6.34-10.75-5.73-17.28c1.18-12.68,9.34-20.97,22.02-22.64c8.09-1.06,9.27-2.42,9.28-10.78
		C365.75,258.37,365.76,253.11,365.74,247.85z M256.15,309.57c-29.94,0.13-53.89-23.8-53.78-53.73
		c0.11-29.79,23.83-53.42,53.61-53.39c29.8,0.02,53.47,23.67,53.53,53.47C309.57,285.67,285.93,309.44,256.15,309.57z"/>
</g>
</svg>
