<?xml version="1.0" encoding="utf-8"?>
<!-- Generator: Adobe Illustrator 23.1.0, SVG Export Plug-In . SVG Version: 6.00 Build 0)  -->
<svg version="1.1" id="圖層_1" xmlns="http://www.w3.org/2000/svg" xmlns:xlink="http://www.w3.org/1999/xlink" x="0px" y="0px"
	 viewBox="0 0 512 512" style="enable-background:new 0 0 512 512;" xml:space="preserve">
<style type="text/css">
	.st0{fill:#6FD6A2;}
	.st1{fill:#BBECCC;}
	.st2{fill:#9AE59C;}
	.st3{fill:#FDA2C5;}
	.st4{fill:#FD92BA;}
	.st5{fill:#F9F6F6;}
	.st6{fill:#9BE59D;}
</style>
<path class="st0" d="M486.51,297.61c-2.65,26.91-12.59,50.92-29.41,71.96c-21.8,27.27-50.11,44.08-84.4,50.48
	c-8.82,1.65-17.86,2.29-26.84,2.88c-39.95,2.65-79.95,3.41-119.97,2.7c-8.33-0.15-13.65,3.4-16.85,10.86
	c-7.03,16.38-20.59,25.34-36.38,31.67c-5.72,2.29-11.67,3.93-17.67,5.27c-6.05,1.35-8.91-1.54-7.81-7.66
	c1.08-6.05,0.82-12.28,2.42-18.26c1.1-1.58,2.84-2.15,4.49-2.89c14.34-6.43,25.79-15.78,32.14-30.7
	c2.93-6.87,8.77-10.09,16.23-10.12c12.49-0.06,24.99-0.2,37.48,0.02c23.78,0.43,47.52-0.68,71.22-2.03
	c14.37-0.82,28.83-1.3,43.03-4.36c27.25-5.88,50.89-18.55,70.24-38.49c21.15-21.8,34.19-47.96,37.98-78.24
	c4.49-35.81-3.36-68.73-24.34-98.37c-1.78-2.51-5-4.56-4.04-8.47c8.81,5.45,15.62,13.07,22.02,20.98
	c17.1,21.15,27.49,45.21,30.44,72.36c0.05,0.5,0.55,0.96,0.84,1.43c0,8.13,0,16.26,0,24.39C486.23,294.4,487.4,296.19,486.51,297.61
	z"/>
<path class="st1" d="M486.51,297.61c0.01-1.58-0.59-3.26,0.81-4.59c0,1.51,0,3.01,0,4.52C487.05,297.56,486.78,297.58,486.51,297.61
	z"/>
<path class="st2" d="M434.02,173.85c3.94,7.22,9.28,13.53,13.31,20.72c7.72,13.77,12.66,28.43,15.6,43.87
	c2.18,11.44,2.31,23.03,1.66,34.54c-0.79,13.97-4.19,27.53-9.31,40.56c-7.06,17.97-17.49,33.91-31.16,47.47
	c-20.7,20.54-45.6,33.37-74.34,38.52c-9.88,1.77-19.92,2.04-29.91,2.83c-39.74,3.16-79.55,2.57-119.35,2.75
	c-6.52,0.03-11.12,4.05-13.69,10.12c-7.13,16.85-20.58,26.4-37.23,32.26c0.29-3.73,0.74-7.46,0.83-11.2
	c0.22-8.76-4.53-14.85-13.24-16.76c-8.38-1.84-16.68-3.94-24.57-7.3c-45.7-19.47-74.89-53.25-84.84-101.97
	c-9.06-44.34,1.8-84.36,31.35-118.84c23.66-27.61,54.13-42.68,89.98-47.26c3.7-0.47,7.45-0.62,11.18-0.91
	c-0.95,2.5-0.65,4.89,0.29,7.37c15.23,40.1,43.83,63.51,86.67,68.06c47.88,5.08,90.16-25.72,104.26-67.83
	c0.8-2.38,1.07-5.04,3.05-6.91c28.7,1.1,54.31,10.86,77.38,27.66C432.76,172.18,433.34,173.09,434.02,173.85z"/>
<path class="st3" d="M179.09,142.11c-7.88-28.43-2.71-54.17,16.72-76.47c17.53-20.12,40.17-28.93,66.63-27.17
	c16.55,1.1,31.45,7.17,44.33,17.83c5.5,8.54,9.51,17.72,11.4,27.73c5.29,28.03-1.36,52.69-21.11,73.51
	c-12.29,12.95-27.3,21.08-44.96,23.82c-19.66,3.06-38.3-0.04-55.53-10.35c-1.29-0.77-2.53-1.61-3.98-2.08
	C185.62,161.23,180.12,152.79,179.09,142.11z"/>
<path class="st0" d="M179.09,142.11c2.96,9.6,7.4,18.42,13.77,26.23c4.65,2.67,7.5,7.26,11.54,10.65
	c25.55,21.44,60.12,25.28,89.42,9.51c17.56-9.45,29.55-23.79,36.89-42.2c0.63-1.57,0.61-3.7,2.87-4.19
	c6.99,0.61,13.99,1.22,20.98,1.83c-3.04,14.07-9.63,26.5-18.39,37.67c-13.02,16.61-29.72,28.48-50.02,34.32
	c-35.28,10.15-67.41,3.71-95.93-19.83c-15.54-12.82-25.56-29.13-31.79-48.07c-0.83-2.52-0.57-3.88,1.86-4.78
	C166.56,142.86,172.82,142.49,179.09,142.11z"/>
<path class="st4" d="M333.58,142.1c-4.24,11.14-9.47,21.66-17.68,30.54c-12.88,13.94-28.51,22.74-47.34,25.54
	c-25.47,3.78-47.77-3.17-67.05-20.12c-3.29-2.89-6.12-6.17-8.66-9.72c2.19-0.94,3.18,1.13,4.6,1.94
	c29.95,16.99,65.87,14.62,92.17-7.3c17.64-14.7,27.71-33.78,28.86-57.25c0.79-16.13-2.4-31.1-10.52-45.07
	c-0.71-1.23-2.38-2.49-1.21-4.36c16.04,12.66,25.29,29.29,28.79,49.27C337.72,117.9,336.34,130.04,333.58,142.1z"/>
<path class="st5" d="M256.2,322.49c0.21,3.87-1.66,6.06-5.17,6.98c-3.68,0.97-6.25-0.81-7.73-3.84c-1.7-3.49-3.01-7.2-4.21-10.9
	c-0.68-2.1-1.8-2.8-3.92-2.78c-9.47,0.08-18.94,0.1-28.41-0.02c-2.19-0.03-3.29,0.81-3.98,2.76c-1.15,3.25-2.39,6.47-3.66,9.68
	c-1.76,4.43-5.28,6.28-9.13,4.87c-3.99-1.46-5.55-5.38-3.8-10.07c3.72-9.98,7.54-19.92,11.34-29.87
	c4.97-13.03,9.89-26.09,14.98-39.08c2.66-6.79,8.13-8.75,13.53-5.26c1.93,1.25,2.78,3.14,3.52,5.08
	c8.56,22.58,17.08,45.18,25.6,67.78C255.73,319.37,256.36,320.91,256.2,322.49z"/>
<path class="st5" d="M307.35,243.26c8.79,0.38,16.76,3.19,23.75,8.53c3.84,2.93,4.46,6.47,2.09,9.76
	c-2.46,3.41-6.21,3.93-10.26,1.33c-6.2-3.99-12.61-6.86-20.3-5.17c-2.64,0.58-4.78,1.73-6.51,3.7c-3.75,4.26-2.69,9.48,2.53,11.74
	c7.99,3.45,16.31,6.23,24.02,10.2c11.16,5.75,15.58,14.79,13.77,25.85c-1.39,8.53-10.95,17.83-20.89,19.71
	c-14.11,2.66-26.45-1.29-36.8-11.14c-4.73-4.5-3.4-10.61,2.4-12.43c2.98-0.94,5.24,0.4,7.25,2.38c5.91,5.84,13.04,8.37,21.28,7.87
	c1.33-0.08,2.69-0.32,3.95-0.74c4.7-1.54,8.55-4.29,9.16-9.47c0.63-5.34-3.28-8.27-7.45-10.19c-7.22-3.32-14.61-6.31-22.04-9.14
	c-8.85-3.37-13-10.18-13.3-19.03c-0.28-8.35,3.75-15.04,11-19.44C295.98,244.56,301.47,243.14,307.35,243.26z"/>
<path class="st5" d="M123.42,286.37c0-10.99-0.03-21.98,0.01-32.97c0.03-7.34,2.75-9.97,10.15-9.98c8.58-0.01,17.16-0.08,25.74,0.03
	c5.18,0.06,8.06,2.41,8.3,6.38c0.29,4.74-2.46,7.68-7.8,7.83c-6.17,0.18-12.35,0.15-18.51,0c-2.71-0.07-3.76,0.76-3.66,3.58
	c0.19,4.96,0.16,9.94,0.01,14.9c-0.07,2.53,0.79,3.46,3.36,3.39c5.42-0.15,10.84-0.08,16.26-0.03c4.99,0.04,8.06,2.4,8.4,6.35
	c0.33,3.83-2.43,7.14-7.25,7.55c-5.68,0.49-11.42,0.4-17.13,0.32c-2.74-0.04-3.74,0.84-3.64,3.62c0.18,4.96,0.16,9.94,0.01,14.9
	c-0.08,2.57,0.86,3.42,3.39,3.37c6.32-0.13,12.64-0.09,18.97-0.03c4.87,0.05,7.66,2.64,7.63,6.92c-0.03,4.51-2.44,6.7-7.69,6.73
	c-9.33,0.06-18.67,0.05-28,0c-5.98-0.03-8.46-2.44-8.52-8.54C123.35,309.25,123.42,297.81,123.42,286.37z"/>
<path class="st5" d="M374.46,303.23c2.79-10.53-2.24-21.16-9.99-31.17c-4.03-5.21-7.32-11.01-10.89-16.57
	c-2.95-4.6-2.48-8.49,1.24-11.08c3.41-2.37,7.19-1.19,10.18,3.3c4.91,7.39,9.84,14.77,14.56,22.27c1.63,2.59,2.52,2.26,3.99-0.02
	c4.7-7.34,9.47-14.64,14.29-21.91c3.12-4.71,6.9-5.89,10.55-3.44c3.63,2.43,4.07,6.55,1.11,11.11c-6.14,9.46-12.25,18.93-18.52,28.3
	c-1.59,2.38-2.27,4.74-2.24,7.57c0.1,9.18,0.04,18.36,0,27.54c-0.01,1.49-0.07,3.01-0.33,4.48c-0.71,3.99-3.39,6-7.22,6.2
	c-3.23,0.17-6.55-3.51-6.66-7.34C374.33,316.89,374.46,311.32,374.46,303.23z"/>
<path class="st5" d="M213.59,124.39c-0.26-3.47,1.26-5.47,4.08-6.58c3.02-1.19,5.72-0.39,7.69,1.96c3.17,3.79,6.19,7.72,9.07,11.74
	c1.63,2.27,2.77,3.03,5.18,0.69c9.7-9.39,19.61-18.58,29.42-27.86c6-5.67,11.99-11.35,17.94-17.07c3.01-2.89,6.25-2.73,9.4-0.61
	c2.7,1.83,3.01,6.74,0.97,9.86c-1.35,2.08-3.58,3.17-5.31,4.83c-8.33,8.02-16.67,16.02-25.01,24.04
	c-8.34,8.01-16.65,16.05-25.02,24.02c-4.36,4.14-8.6,3.71-12.2-1.02c-4.45-5.84-8.97-11.63-13.38-17.51
	C214.94,128.88,212.95,126.99,213.59,124.39z"/>
<path class="st6" d="M221,267.09c3.8,9.97,7.13,18.79,10.54,27.58c0.98,2.53,0.93,3.82-2.42,3.68c-5.55-0.23-11.11-0.06-16.66-0.06
	c-1.88,0-3.39-0.17-2.37-2.78C213.62,286.46,217.06,277.38,221,267.09z"/>
</svg>
